<?xml version="1.0" standalone="no"?>
<svg xmlns:xlink="http://www.w3.org/1999/xlink" id="wave" style="transform:rotate(180deg); transition: 0.3s" viewBox="0 0 1440 100" version="1.1" xmlns="http://www.w3.org/2000/svg"><defs><linearGradient id="sw-gradient-0" x1="0" x2="0" y1="1" y2="0"><stop stop-color="rgba(140, 64, 225, 1)" offset="0%"/><stop stop-color="rgba(140, 64, 225, 1)" offset="100%"/></linearGradient></defs><path style="transform:translate(0, 0px); opacity:1" fill="url(#sw-gradient-0)" d="M0,10L80,18.3C160,27,320,43,480,43.3C640,43,800,27,960,23.3C1120,20,1280,30,1440,35C1600,40,1760,40,1920,45C2080,50,2240,60,2400,53.3C2560,47,2720,23,2880,15C3040,7,3200,13,3360,15C3520,17,3680,13,3840,15C4000,17,4160,23,4320,21.7C4480,20,4640,10,4800,15C4960,20,5120,40,5280,50C5440,60,5600,60,5760,50C5920,40,6080,20,6240,13.3C6400,7,6560,13,6720,26.7C6880,40,7040,60,7200,68.3C7360,77,7520,73,7680,61.7C7840,50,8000,30,8160,33.3C8320,37,8480,63,8640,68.3C8800,73,8960,57,9120,48.3C9280,40,9440,40,9600,36.7C9760,33,9920,27,10080,31.7C10240,37,10400,53,10560,56.7C10720,60,10880,50,11040,41.7C11200,33,11360,27,11440,23.3L11520,20L11520,100L11440,100C11360,100,11200,100,11040,100C10880,100,10720,100,10560,100C10400,100,10240,100,10080,100C9920,100,9760,100,9600,100C9440,100,9280,100,9120,100C8960,100,8800,100,8640,100C8480,100,8320,100,8160,100C8000,100,7840,100,7680,100C7520,100,7360,100,7200,100C7040,100,6880,100,6720,100C6560,100,6400,100,6240,100C6080,100,5920,100,5760,100C5600,100,5440,100,5280,100C5120,100,4960,100,4800,100C4640,100,4480,100,4320,100C4160,100,4000,100,3840,100C3680,100,3520,100,3360,100C3200,100,3040,100,2880,100C2720,100,2560,100,2400,100C2240,100,2080,100,1920,100C1760,100,1600,100,1440,100C1280,100,1120,100,960,100C800,100,640,100,480,100C320,100,160,100,80,100L0,100Z"/></svg>